<svg xmlns="http://www.w3.org/2000/svg" viewBox="0 0 1347.094 202.559">
    <defs>
        <style>.a,.b{fill:#222017;}.a,.c{fill-rule:evenodd;}.c{fill:#c7252d;}</style>
    </defs>
    <path class="a"
          d="M1333.2,224.053h85.764V197.027h-79.355a4.137,4.137,0,0,1-4.124-4.123v-5.67H1398.8a24.79,24.79,0,0,0,24.744-24.742V148.131a24.791,24.791,0,0,0-24.744-24.742H1333.2a24.791,24.791,0,0,0-24.744,24.742v51.181a24.79,24.79,0,0,0,24.744,24.741Zm2.285-63.845V154.54a4.129,4.129,0,0,1,4.124-4.123h52.788a4.129,4.129,0,0,1,4.124,4.123v1.544a4.13,4.13,0,0,1-4.124,4.124Z"
          transform="translate(-76.453 -72.22)"/>
    <path class="a"
          d="M1293.851,170.15v29.739a24.789,24.789,0,0,1-24.745,24.74h-63.319v30.978h-27.021V148.131a24.787,24.787,0,0,1,24.74-24.742h65.6a24.791,24.791,0,0,1,24.745,24.742V170.15Zm-36.08,27.453h4.931a4.134,4.134,0,0,0,4.124-4.123V180.707c0-.227,0-.457,0-.69V177.87h0v-7.72h0v-2.144c0-.233,0-.465,0-.692V154.54a4.134,4.134,0,0,0-4.124-4.123h-52.788a4.133,4.133,0,0,0-4.123,4.123v12.774c0,.227,0,.459,0,.692v2.144h0l0,3.86,0,3.86h0v2.147l0,.584v17h51.98Z"
          transform="translate(-76.453 -72.22)"/>
    <rect class="b" x="1060.677" y="51.169" width="27.029" height="100.688"/>
    <path class="a"
          d="M1122.527,170.15v29.739a24.788,24.788,0,0,1-24.744,24.74h-63.319v30.978h-27.026V148.131a24.792,24.792,0,0,1,24.745-24.742h65.6a24.79,24.79,0,0,1,24.744,24.742V170.15ZM1086.444,197.6h4.935a4.137,4.137,0,0,0,4.124-4.123V177.87h0v-7.72h0V154.54a4.137,4.137,0,0,0-4.124-4.123h-52.788a4.137,4.137,0,0,0-4.127,4.123v15.61h0v7.72h0V197.6h51.98Z"
          transform="translate(-76.453 -72.22)"/>
    <path class="a"
          d="M912.516,123.389h55.576a24.791,24.791,0,0,1,24.744,24.742v75.946H965.81V177.87h0l0-9.864c0-.233,0-.465,0-.692V154.54a4.134,4.134,0,0,0-4.123-4.123H926.03v73.66H899.005v-73.66H863.348a4.134,4.134,0,0,0-4.124,4.123v12.774c0,.227,0,.459,0,.692l0,9.864h0l0,46.207H832.2V148.131a24.79,24.79,0,0,1,24.74-24.742h55.578Z"
          transform="translate(-76.453 -72.22)"/>
    <path class="a"
          d="M792.852,123.389H707.089v27.028h79.354a4.135,4.135,0,0,1,4.124,4.123v5.668H727.249a24.791,24.791,0,0,0-24.744,24.746v14.358a24.789,24.789,0,0,0,24.744,24.741h65.6A24.791,24.791,0,0,0,817.6,199.312V148.131a24.792,24.792,0,0,0-24.745-24.742Zm-2.285,63.845v5.67a4.128,4.128,0,0,1-4.124,4.123H733.655a4.129,4.129,0,0,1-4.123-4.123V191.36a4.131,4.131,0,0,1,4.123-4.126Z"
          transform="translate(-76.453 -72.22)"/>
    <path class="a"
          d="M601.138,224.053H686.9V197.027H607.542a4.137,4.137,0,0,1-4.124-4.123v-5.67h63.32a24.79,24.79,0,0,0,24.744-24.742V148.131a24.791,24.791,0,0,0-24.744-24.742h-65.6a24.791,24.791,0,0,0-24.747,24.742v51.181a24.791,24.791,0,0,0,24.747,24.741Zm2.28-63.845V154.54a4.13,4.13,0,0,1,4.124-4.123h52.792a4.13,4.13,0,0,1,4.121,4.123v1.544a4.131,4.131,0,0,1-4.121,4.124Z"
          transform="translate(-76.453 -72.22)"/>
    <polygon class="a"
             points="384.889 51.169 384.889 78.338 421.786 78.338 421.786 151.832 449.436 151.832 449.436 78.338 486.331 78.338 486.331 51.169 384.889 51.169"/>
    <path class="a"
          d="M390.526,187.234h-32.8a24.79,24.79,0,0,1-24.745-24.742V148.131a24.791,24.791,0,0,1,24.745-24.742h89.009v27.028h-82.6a4.13,4.13,0,0,0-4.124,4.123v1.544a4.131,4.131,0,0,0,4.124,4.124h62.443a24.792,24.792,0,0,1,24.742,24.746v14.358a24.789,24.789,0,0,1-24.742,24.741h-89.01V197.027h82.6a4.13,4.13,0,0,0,4.123-4.123V191.36a4.132,4.132,0,0,0-4.123-4.126H390.526Z"
          transform="translate(-76.453 -72.22)"/>
    <path class="a"
          d="M170.428,223.723h0c3.424,3.673,8.659,5.819,11.873,2.6l9.948-9.951,38.307-38.3c6.2-6.2-7.522-19.88-13.7-13.693l-14.14,14.136.735.73.083.081a4.5,4.5,0,0,1-.083,6.263l-.824.823-3.994,4-3.9-3.9,0,0-30-30,.006,0-3.9-3.91,4-3.993.824-.824a4.492,4.492,0,0,1,6.257-.079l.082.079.737.734,21.252-21.248a38.92,38.92,0,0,1,54.933,0l18.771,18.767a38.954,38.954,0,0,1,0,54.937l-45.416,45.418L205.2,263.442a38.949,38.949,0,0,1-54.941,0l-23.825-23.831a47.96,47.96,0,0,0,41.52-13.413Z"
          transform="translate(-76.453 -72.22)"/>
    <path class="c"
          d="M185.033,123.276l-.007,0c-3.421-3.675-8.656-5.824-11.871-2.608l-9.947,9.95-38.308,38.3c-6.2,6.2,7.521,19.881,13.7,13.7l14.14-14.142-.733-.729-.083-.083a4.493,4.493,0,0,1,.083-6.262l.824-.822,3.993-4,3.9,3.9,0,0,30,30-.007,0,3.905,3.908-3.992,4-.83.82a4.491,4.491,0,0,1-6.254.081l-.083-.081-.734-.735-21.252,21.246a38.917,38.917,0,0,1-54.935,0L87.786,200.967a38.955,38.955,0,0,1,0-54.937L133.2,100.611l17.056-17.055a38.954,38.954,0,0,1,54.941,0l23.825,23.831A47.955,47.955,0,0,0,187.506,120.8Z"
          transform="translate(-76.453 -72.22)"/>
</svg>