<svg width="100%" height="100%" viewBox="0 0 1371 228" version="1.1" xmlns="http://www.w3.org/2000/svg" style="fill-rule:evenodd;clip-rule:evenodd;stroke-linejoin:round;stroke-miterlimit:2;">
    <g id="Artboard1" transform="matrix(1,0,0,1,11.6232,12.219)">
        <rect x="-11.623" y="-12.219" width="1370.41" height="227.34" style="fill:none;"/>
        <g>
            <g transform="matrix(1,0,0,1,-76.0762,-71.439)">
                <path d="M1333.2,224.053L1418.96,224.053L1418.96,197.027L1339.61,197.027C1337.35,197.02 1335.49,195.163 1335.49,192.904L1335.49,187.234L1398.8,187.234C1412.36,187.209 1423.52,176.056 1423.54,162.492L1423.54,148.131C1423.52,134.567 1412.36,123.415 1398.8,123.389L1333.2,123.389C1319.64,123.415 1308.48,134.567 1308.46,148.131L1308.46,199.312C1308.48,212.876 1319.64,224.028 1333.2,224.053ZM1335.49,160.208L1335.49,154.54C1335.49,152.279 1337.35,150.42 1339.61,150.417L1392.4,150.417C1394.66,150.42 1396.52,152.279 1396.52,154.54L1396.52,156.084C1396.52,158.345 1394.66,160.205 1392.4,160.208L1335.49,160.208Z" style="fill:rgb(204,204,204);fill-rule:nonzero;"/>
            </g>
            <g transform="matrix(1,0,0,1,-76.0762,-71.439)">
                <path d="M1293.85,148.131L1293.85,199.889C1293.82,213.453 1282.67,224.605 1269.11,224.629L1205.79,224.629L1205.79,255.607L1178.77,255.607L1178.77,148.131C1178.79,134.568 1189.94,123.415 1203.51,123.389L1269.11,123.389C1282.67,123.414 1293.82,134.567 1293.85,148.131ZM1257.77,197.603L1262.7,197.603C1264.96,197.598 1266.82,195.74 1266.83,193.48L1266.83,154.54C1266.82,152.28 1264.96,150.422 1262.7,150.417L1209.91,150.417C1207.65,150.422 1205.8,152.28 1205.79,154.54L1205.79,197.601L1257.77,197.601L1257.77,197.603Z" style="fill:rgb(204,204,204);fill-rule:nonzero;"/>
            </g>
            <g transform="matrix(1,0,0,1,0.376837,0.781045)">
                <rect x="1060.68" y="51.169" width="27.029" height="100.688" style="fill:rgb(204,204,204);"/>
            </g>
            <g transform="matrix(1,0,0,1,-76.0762,-71.439)">
                <path d="M1122.53,148.131L1122.53,199.889C1122.5,213.453 1111.35,224.605 1097.78,224.629L1034.46,224.629L1034.46,255.607L1007.44,255.607L1007.44,148.131C1007.47,134.567 1018.62,123.415 1032.18,123.389L1097.78,123.389C1111.35,123.414 1122.5,134.567 1122.53,148.131ZM1034.46,197.6L1091.38,197.6C1093.64,197.593 1095.5,195.736 1095.5,193.477L1095.5,154.54C1095.5,152.281 1093.64,150.424 1091.38,150.417L1038.59,150.417C1036.33,150.422 1034.47,152.28 1034.46,154.54L1034.46,197.6Z" style="fill:rgb(204,204,204);fill-rule:nonzero;"/>
            </g>
            <g transform="matrix(1,0,0,1,-76.0762,-71.439)">
                <path d="M912.516,123.389L968.092,123.389C981.656,123.415 992.809,134.567 992.836,148.131L992.836,224.077L965.81,224.077L965.81,154.54C965.804,152.28 963.947,150.423 961.687,150.417L926.03,150.417L926.03,224.077L899.005,224.077L899.005,150.417L863.348,150.417C861.088,150.422 859.23,152.28 859.224,154.54L859.224,224.077L832.2,224.077L832.2,148.131C832.226,134.569 843.378,123.416 856.94,123.389L912.518,123.389L912.516,123.389Z" style="fill:rgb(204,204,204);fill-rule:nonzero;"/>
            </g>
            <g transform="matrix(1,0,0,1,-76.0762,-71.439)">
                <path d="M792.855,123.389L707.089,123.389L707.089,150.417L786.443,150.417C788.703,150.423 790.56,152.28 790.567,154.54L790.567,160.208L727.249,160.208C713.684,160.234 702.53,171.389 702.505,184.954L702.505,199.312C702.531,212.876 713.685,224.028 727.249,224.053L792.849,224.053C806.415,224.031 817.573,212.878 817.6,199.312L817.6,148.131C817.573,134.567 806.419,123.415 792.855,123.389ZM790.567,187.234L790.567,192.904C790.564,195.165 788.704,197.025 786.443,197.027L733.655,197.027C731.394,197.024 729.535,195.165 729.532,192.904L729.532,191.36C729.535,189.099 731.394,187.238 733.655,187.234L790.567,187.234Z" style="fill:rgb(204,204,204);fill-rule:nonzero;"/>
            </g>
            <g transform="matrix(1,0,0,1,-76.0762,-71.439)">
                <path d="M601.138,224.053L686.9,224.053L686.9,197.027L607.542,197.027C605.283,197.02 603.426,195.163 603.418,192.904L603.418,187.234L666.738,187.234C680.302,187.209 691.456,176.056 691.482,162.492L691.482,148.131C691.455,134.567 680.302,123.415 666.738,123.389L601.138,123.389C587.573,123.413 576.418,134.566 576.391,148.131L576.391,199.312C576.418,212.876 587.574,224.029 601.138,224.053ZM603.418,160.208L603.418,154.54C603.422,152.279 605.281,150.42 607.542,150.417L660.334,150.417C662.594,150.422 664.451,152.28 664.455,154.54L664.455,156.084C664.451,158.344 662.594,160.203 660.334,160.208L603.418,160.208Z" style="fill:rgb(204,204,204);fill-rule:nonzero;"/>
            </g>
            <g transform="matrix(1,0,0,1,0.376837,0.781045)">
                <path d="M384.889,51.169L384.889,78.338L421.786,78.338L421.786,151.832L449.436,151.832L449.436,78.338L486.331,78.338L486.331,51.169L384.889,51.169Z" style="fill:rgb(204,204,204);fill-rule:nonzero;"/>
            </g>
            <g transform="matrix(1,0,0,1,-76.0762,-71.439)">
                <path d="M420.168,187.234L357.726,187.234C344.162,187.209 333.007,176.056 332.981,162.492L332.981,148.131C333.008,134.567 344.162,123.414 357.726,123.389L446.735,123.389L446.735,150.417L364.135,150.417C361.874,150.42 360.015,152.279 360.011,154.54L360.011,156.084C360.015,158.345 361.874,160.204 364.135,160.208L426.578,160.208C440.142,160.235 451.295,171.39 451.32,184.954L451.32,199.312C451.294,212.875 440.141,224.027 426.578,224.053L337.568,224.053L337.568,197.027L420.168,197.027C422.428,197.023 424.287,195.164 424.291,192.904L424.291,191.36C424.288,189.099 422.429,187.239 420.168,187.234Z" style="fill:rgb(204,204,204);fill-rule:nonzero;"/>
            </g>
        </g>
        <g transform="matrix(0.707107,0.707107,-0.707107,0.707107,97.8541,-64.0017)">
            <path d="M212.128,67.915C212.128,42.602 191.577,22.052 166.265,22.052L74.539,22.052C49.226,22.052 28.676,42.602 28.676,67.915L28.676,159.641C28.676,184.953 49.226,205.504 74.539,205.504L166.265,205.504C191.577,205.504 212.128,184.953 212.128,159.641L212.128,67.915Z" style="fill:rgb(204,204,204);"/>
        </g>
        <g>
            <g transform="matrix(1,0,0,1,-76.0762,-71.439)">
                <path d="M170.428,223.723C173.852,227.396 179.087,229.542 182.301,226.323L192.249,216.372L230.556,178.072C236.756,171.872 223.034,158.192 216.856,164.379L202.716,178.515L203.451,179.245L203.534,179.326C205.192,181.083 205.155,183.877 203.451,185.589L202.627,186.412L198.633,190.412L164.733,156.512L164.739,156.512L160.839,152.602L164.839,148.609L165.663,147.785C167.374,146.082 170.167,146.047 171.92,147.706L172.002,147.785L172.739,148.519L193.991,127.271C209.077,112.244 233.838,112.244 248.924,127.271L267.695,146.038C282.706,161.133 282.706,185.88 267.695,200.975L222.279,246.393L205.2,263.442C190.106,278.459 165.353,278.459 150.259,263.442L126.434,239.611C141.612,242.057 157.076,237.061 167.954,226.198L170.428,223.723Z" style="fill-rule:nonzero;"/>
            </g>
            <g transform="matrix(1,0,0,1,-76.0762,-71.439)">
                <path d="M185.033,123.276L185.026,123.276C181.605,119.601 176.37,117.452 173.155,120.668L163.208,130.618L124.9,168.918C118.7,175.118 132.421,188.799 138.6,182.618L152.74,168.476L152.007,167.747L151.924,167.664C150.263,165.909 150.3,163.112 152.007,161.402L152.831,160.58L156.824,156.58L190.724,190.48L190.717,190.48L194.622,194.388L190.63,198.388L189.8,199.208C188.09,200.91 185.299,200.946 183.546,199.289L183.463,199.208L182.729,198.473L161.477,219.719C146.391,234.749 121.628,234.749 106.542,219.719L87.786,200.967C72.775,185.872 72.775,161.125 87.786,146.03L133.2,100.611L150.256,83.556C165.351,68.542 190.102,68.542 205.197,83.556L229.022,107.387C213.845,104.942 198.383,109.937 187.506,120.8L185.033,123.276Z" style="fill:rgb(199,37,45);fill-rule:nonzero;"/>
            </g>
        </g>
    </g>
</svg>
