<?xml version="1.0" encoding="utf-8"?>
<!-- Generator: Adobe Illustrator 25.2.0, SVG Export Plug-In . SVG Version: 6.00 Build 0)  -->
<svg version="1.1" id="Layer_1" xmlns="http://www.w3.org/2000/svg" xmlns:xlink="http://www.w3.org/1999/xlink" x="0px" y="0px"
	 viewBox="0 0 1000 1000" style="enable-background:new 0 0 1000 1000;" xml:space="preserve">
<style type="text/css">
	.st0{fill-rule:evenodd;clip-rule:evenodd;fill:#FFFFFF;}
	.st1{fill-rule:evenodd;clip-rule:evenodd;fill:#222017;}
	.st2{fill-rule:evenodd;clip-rule:evenodd;fill:#C7272E;}
</style>
<g id="bg">
	<path class="st0" d="M919.5,655.6l-264,264c-85.6,85.6-225.6,85.6-311.1,0l-264-264C-5.1,570-5.1,430,80.5,344.4l264-264
		C430-5.1,570-5.1,655.6,80.5l264,264C1005.1,430,1005.1,570,919.5,655.6z"/>
</g>
<g id="Logo">
	<g>
		<path id="Bottom_1_" class="st1" d="M470.3,704.3L470.3,704.3c13.9,14.9,35.2,23.7,48.3,10.6l40.5-40.5l155.8-155.8
			c25.2-25.2-30.6-80.9-55.7-55.7l-57.5,57.5l3,3l0.3,0.3c6.8,7.2,6.6,18.5-0.3,25.5l-3.3,3.4L585,568.8l-15.9-15.9l0,0L447,430.9
			l0,0L431.2,415l16.3-16.2l3.3-3.4c7-7,18.3-7.1,25.4-0.3l0.3,0.3l3,3L566,312c61.5-61.5,161.9-61.5,223.5,0l76.4,76.3
			c61.4,61.4,61.5,162,0,223.5L681.1,796.5l-69.4,69.4c-61.5,61.5-162.1,61.4-223.5,0l-96.9-97c59.7,9.5,123-8.7,168.9-54.6
			L470.3,704.3z"/>
		<path id="Top_1_" class="st2" d="M529.7,295.7L529.7,295.7c-13.9-15-35.2-23.7-48.3-10.6l-40.5,40.5L285.1,481.4
			c-25.2,25.2,30.6,80.9,55.7,55.7l57.5-57.5l-3-3l-0.3-0.3c-6.8-7.2-6.6-18.5,0.3-25.5l3.4-3.3l16.2-16.3l15.9,15.9l0,0l122.1,122
			l0,0l15.9,15.9l-16.3,16.3l-3.4,3.3c-7,7-18.3,7.1-25.4,0.3l-0.3-0.3l-3-3L433.9,688c-61.6,61.5-162,61.5-223.5,0L134,611.7
			c-61.4-61.4-61.5-162,0-223.5l184.8-184.7l69.4-69.4c61.5-61.5,162.1-61.4,223.5,0l96.9,97c-59.7-9.5-123,8.7-168.9,54.6
			L529.7,295.7z"/>
	</g>
</g>
</svg>
